# Wavefront OBJ file automatically generated by Tiled2Unity

# Vertices (Count = 121)
v 0 -48 0
v -16 -48 0
v -16 -32 0
v 0 -32 0
v -48 -48 0
v -64 -48 0
v -64 -32 0
v -48 -32 0
v -80 -48 0
v -80 -32 0
v -96 -48 0
v -96 -32 0
v -112 -48 0
v -112 -32 0
v -128 -48 0
v -128 -32 0
v -144 -48 0
v -144 -32 0
v -160 -48 0
v -160 -32 0
v 0 -64 0
v -16 -64 0
v -32 -64 0
v -32 -48 0
v -48 -64 0
v -64 -64 0
v -80 -64 0
v -96 -64 0
v -112 -64 0
v -128 -64 0
v -144 -64 0
v -160 -64 0
v 0 -80 0
v -16 -80 0
v -32 -80 0
v -48 -80 0
v -64 -80 0
v -80 -80 0
v -96 -80 0
v -112 -80 0
v -128 -80 0
v -144 -80 0
v -160 -80 0
v 0 -96 0
v -16 -96 0
v -32 -96 0
v -48 -96 0
v -64 -96 0
v -80 -96 0
v -96 -96 0
v -112 -96 0
v -128 -96 0
v -144 -96 0
v -160 -96 0
v 0 -112 0
v -16 -112 0
v -32 -112 0
v -48 -112 0
v -64 -112 0
v -80 -112 0
v -96 -112 0
v -112 -112 0
v -128 -112 0
v -144 -112 0
v -160 -112 0
v 0 -128 0
v -16 -128 0
v -32 -128 0
v -48 -128 0
v -64 -128 0
v -80 -128 0
v -96 -128 0
v -112 -128 0
v -128 -128 0
v -144 -128 0
v -160 -128 0
v 0 -144 0
v -16 -144 0
v -32 -144 0
v -48 -144 0
v -64 -144 0
v -80 -144 0
v -96 -144 0
v -112 -144 0
v -128 -144 0
v -144 -144 0
v -160 -144 0
v -16 -160 0
v -32 -160 0
v -48 -160 0
v -64 -160 0
v -80 -160 0
v -96 -160 0
v -112 -160 0
v -128 -160 0
v -144 -160 0
v 0 -16 0
v -16 -16 0
v -16 0 0
v 0 0 0
v -32 -16 0
v -32 0 0
v -48 -16 0
v -48 0 0
v -64 -16 0
v -64 0 0
v -80 -16 0
v -80 0 0
v -96 -16 0
v -96 0 0
v -112 -16 0
v -112 0 0
v -128 -16 0
v -128 0 0
v -144 -16 0
v -144 0 0
v -160 -16 0
v -160 0 0
v -32 -32 0
v 0 -160 0
v -160 -160 0

# Texture cooridinates (Count = 52)
vt 0.2969971 0.4376221
vt 0.4217529 0.4376221
vt 0.4217529 0.6873779
vt 0.2969971 0.6873779
vt 0.7188721 0.4376221
vt 0.8436279 0.4376221
vt 0.8436279 0.6873779
vt 0.7188721 0.6873779
vt 0.01574707 0.4376221
vt 0.1405029 0.4376221
vt 0.1405029 0.6873779
vt 0.01574707 0.6873779
vt 0.5782471 0.4376221
vt 0.7030029 0.4376221
vt 0.7030029 0.6873779
vt 0.5782471 0.6873779
vt 0.8594971 0.4376221
vt 0.9842529 0.4376221
vt 0.9842529 0.6873779
vt 0.8594971 0.6873779
vt 0.01574707 0.1563721
vt 0.1405029 0.1563721
vt 0.1405029 0.4061279
vt 0.01574707 0.4061279
vt 0.4376221 0.7188721
vt 0.5623779 0.7188721
vt 0.5623779 0.9686279
vt 0.4376221 0.9686279
vt 0.8594971 0.7188721
vt 0.9842529 0.7188721
vt 0.9842529 0.9686279
vt 0.8594971 0.9686279
vt 0.2969971 0.7188721
vt 0.4217529 0.7188721
vt 0.4217529 0.9686279
vt 0.2969971 0.9686279
vt 0.7188721 0.7188721
vt 0.8436279 0.7188721
vt 0.8436279 0.9686279
vt 0.7188721 0.9686279
vt 0.5782471 0.7188721
vt 0.7030029 0.7188721
vt 0.7030029 0.9686279
vt 0.5782471 0.9686279
vt 0.01574707 0.7188721
vt 0.1405029 0.7188721
vt 0.1405029 0.9686279
vt 0.01574707 0.9686279
vt 0.1563721 0.7188721
vt 0.2811279 0.7188721
vt 0.2811279 0.9686279
vt 0.1563721 0.9686279

# Normal
vn 0 0 -1

# Groups (Count = 2)

g mesh_0001
f 1/1/1 2/2/1 3/3/1 4/4/1
f 5/5/1 6/6/1 7/7/1 8/8/1
f 6/5/1 9/6/1 10/7/1 7/8/1
f 9/5/1 11/6/1 12/7/1 10/8/1
f 11/5/1 13/6/1 14/7/1 12/8/1
f 13/5/1 15/6/1 16/7/1 14/8/1
f 15/5/1 17/6/1 18/7/1 16/8/1
f 17/9/1 19/10/1 20/11/1 18/12/1
f 21/5/1 22/6/1 2/7/1 1/8/1
f 22/5/1 23/6/1 24/7/1 2/8/1
f 23/5/1 25/6/1 5/7/1 24/8/1
f 25/5/1 26/6/1 6/7/1 5/8/1
f 26/5/1 27/6/1 9/7/1 6/8/1
f 27/5/1 28/6/1 11/7/1 9/8/1
f 28/5/1 29/6/1 13/7/1 11/8/1
f 29/5/1 30/6/1 15/7/1 13/8/1
f 30/5/1 31/6/1 17/7/1 15/8/1
f 31/13/1 32/14/1 19/15/1 17/16/1
f 33/5/1 34/6/1 22/7/1 21/8/1
f 34/5/1 35/6/1 23/7/1 22/8/1
f 35/5/1 36/6/1 25/7/1 23/8/1
f 36/5/1 37/6/1 26/7/1 25/8/1
f 37/5/1 38/6/1 27/7/1 26/8/1
f 38/5/1 39/6/1 28/7/1 27/8/1
f 39/5/1 40/6/1 29/7/1 28/8/1
f 40/5/1 41/6/1 30/7/1 29/8/1
f 41/5/1 42/6/1 31/7/1 30/8/1
f 42/13/1 43/14/1 32/15/1 31/16/1
f 44/5/1 45/6/1 34/7/1 33/8/1
f 45/5/1 46/6/1 35/7/1 34/8/1
f 46/5/1 47/6/1 36/7/1 35/8/1
f 47/5/1 48/6/1 37/7/1 36/8/1
f 48/5/1 49/6/1 38/7/1 37/8/1
f 49/5/1 50/6/1 39/7/1 38/8/1
f 50/5/1 51/6/1 40/7/1 39/8/1
f 51/5/1 52/6/1 41/7/1 40/8/1
f 52/5/1 53/6/1 42/7/1 41/8/1
f 53/13/1 54/14/1 43/15/1 42/16/1
f 55/5/1 56/6/1 45/7/1 44/8/1
f 56/5/1 57/6/1 46/7/1 45/8/1
f 57/5/1 58/6/1 47/7/1 46/8/1
f 58/5/1 59/6/1 48/7/1 47/8/1
f 59/5/1 60/6/1 49/7/1 48/8/1
f 60/5/1 61/6/1 50/7/1 49/8/1
f 61/5/1 62/6/1 51/7/1 50/8/1
f 62/5/1 63/6/1 52/7/1 51/8/1
f 63/5/1 64/6/1 53/7/1 52/8/1
f 64/13/1 65/14/1 54/15/1 53/16/1
f 66/5/1 67/6/1 56/7/1 55/8/1
f 67/5/1 68/6/1 57/7/1 56/8/1
f 68/5/1 69/6/1 58/7/1 57/8/1
f 69/5/1 70/6/1 59/7/1 58/8/1
f 70/5/1 71/6/1 60/7/1 59/8/1
f 71/5/1 72/6/1 61/7/1 60/8/1
f 72/5/1 73/6/1 62/7/1 61/8/1
f 73/5/1 74/6/1 63/7/1 62/8/1
f 74/5/1 75/6/1 64/7/1 63/8/1
f 75/13/1 76/14/1 65/15/1 64/16/1
f 77/5/1 78/6/1 67/7/1 66/8/1
f 78/5/1 79/6/1 68/7/1 67/8/1
f 79/5/1 80/6/1 69/7/1 68/8/1
f 80/5/1 81/6/1 70/7/1 69/8/1
f 81/5/1 82/6/1 71/7/1 70/8/1
f 82/5/1 83/6/1 72/7/1 71/8/1
f 83/5/1 84/6/1 73/7/1 72/8/1
f 84/5/1 85/6/1 74/7/1 73/8/1
f 85/5/1 86/6/1 75/7/1 74/8/1
f 86/13/1 87/14/1 76/15/1 75/16/1
f 88/5/1 89/6/1 79/7/1 78/8/1
f 89/5/1 90/6/1 80/7/1 79/8/1
f 91/17/1 92/18/1 82/19/1 81/20/1
f 92/5/1 93/6/1 83/7/1 82/8/1
f 93/17/1 94/18/1 84/19/1 83/20/1
f 94/17/1 95/18/1 85/19/1 84/20/1
f 95/17/1 96/18/1 86/19/1 85/20/1

g mesh_0002
f 97/21/1 98/22/1 99/23/1 100/24/1
f 98/21/1 101/22/1 102/23/1 99/24/1
f 101/21/1 103/22/1 104/23/1 102/24/1
f 103/21/1 105/22/1 106/23/1 104/24/1
f 105/21/1 107/22/1 108/23/1 106/24/1
f 107/21/1 109/22/1 110/23/1 108/24/1
f 109/21/1 111/22/1 112/23/1 110/24/1
f 111/21/1 113/22/1 114/23/1 112/24/1
f 113/21/1 115/22/1 116/23/1 114/24/1
f 115/21/1 117/22/1 118/23/1 116/24/1
f 4/25/1 3/26/1 98/27/1 97/28/1
f 3/29/1 119/30/1 101/31/1 98/32/1
f 119/29/1 8/30/1 103/31/1 101/32/1
f 8/29/1 7/30/1 105/31/1 103/32/1
f 7/29/1 10/30/1 107/31/1 105/32/1
f 10/29/1 12/30/1 109/31/1 107/32/1
f 12/29/1 14/30/1 111/31/1 109/32/1
f 14/29/1 16/30/1 113/31/1 111/32/1
f 16/29/1 18/30/1 115/31/1 113/32/1
f 18/33/1 20/34/1 117/35/1 115/36/1
f 1/25/1 2/26/1 3/27/1 4/28/1
f 2/37/1 24/38/1 119/39/1 3/40/1
f 24/37/1 5/38/1 8/39/1 119/40/1
f 5/37/1 6/38/1 7/39/1 8/40/1
f 6/37/1 9/38/1 10/39/1 7/40/1
f 9/37/1 11/38/1 12/39/1 10/40/1
f 11/37/1 13/38/1 14/39/1 12/40/1
f 13/37/1 15/38/1 16/39/1 14/40/1
f 15/37/1 17/38/1 18/39/1 16/40/1
f 17/33/1 19/34/1 20/35/1 18/36/1
f 21/25/1 22/26/1 2/27/1 1/28/1
f 31/33/1 32/34/1 19/35/1 17/36/1
f 33/25/1 34/26/1 22/27/1 21/28/1
f 42/33/1 43/34/1 32/35/1 31/36/1
f 44/25/1 45/26/1 34/27/1 33/28/1
f 53/33/1 54/34/1 43/35/1 42/36/1
f 55/25/1 56/26/1 45/27/1 44/28/1
f 64/33/1 65/34/1 54/35/1 53/36/1
f 66/25/1 67/26/1 56/27/1 55/28/1
f 75/33/1 76/34/1 65/35/1 64/36/1
f 77/25/1 78/26/1 67/27/1 66/28/1
f 86/33/1 87/34/1 76/35/1 75/36/1
f 120/21/1 88/22/1 78/23/1 77/24/1
f 88/41/1 89/42/1 79/43/1 78/44/1
f 89/41/1 90/42/1 80/43/1 79/44/1
f 90/45/1 91/46/1 81/47/1 80/48/1
f 91/49/1 92/50/1 82/51/1 81/52/1
f 92/41/1 93/42/1 83/43/1 82/44/1
f 93/41/1 94/42/1 84/43/1 83/44/1
f 94/41/1 95/42/1 85/43/1 84/44/1
f 95/41/1 96/42/1 86/43/1 85/44/1
f 96/21/1 121/22/1 87/23/1 86/24/1

