# Wavefront OBJ file automatically generated by Tiled2Unity

# Vertices (Count = 336)
v 0 -16 0
v -16 -16 0
v -16 0 0
v 0 0 0
v -32 -16 0
v -32 0 0
v -48 -16 0
v -48 0 0
v -64 -16 0
v -64 0 0
v -80 -16 0
v -80 0 0
v -96 -16 0
v -96 0 0
v -112 -16 0
v -112 0 0
v -128 -16 0
v -128 0 0
v -144 -16 0
v -144 0 0
v -160 -16 0
v -160 0 0
v -176 -16 0
v -176 0 0
v -192 -16 0
v -192 0 0
v -208 -16 0
v -224 -16 0
v -224 0 0
v -208 0 0
v -240 -16 0
v -240 0 0
v -256 -16 0
v -256 0 0
v -272 -16 0
v -272 0 0
v -288 -16 0
v -288 0 0
v -304 -16 0
v -304 0 0
v -320 -16 0
v -320 0 0
v 0 -32 0
v -16 -32 0
v -32 -32 0
v -48 -32 0
v -64 -32 0
v -80 -32 0
v -96 -32 0
v -112 -32 0
v -128 -32 0
v -144 -32 0
v -160 -32 0
v -176 -32 0
v -192 -32 0
v -208 -32 0
v -224 -32 0
v -240 -32 0
v -256 -32 0
v -272 -32 0
v -288 -32 0
v -304 -32 0
v -320 -32 0
v 0 -128 0
v -16 -128 0
v -16 -112 0
v 0 -112 0
v -32 -128 0
v -32 -112 0
v -48 -128 0
v -48 -112 0
v -64 -128 0
v -64 -112 0
v -80 -128 0
v -80 -112 0
v -96 -128 0
v -96 -112 0
v -112 -128 0
v -112 -112 0
v -128 -128 0
v -128 -112 0
v -144 -128 0
v -144 -112 0
v -160 -128 0
v -160 -112 0
v -176 -128 0
v -176 -112 0
v -192 -128 0
v -192 -112 0
v -208 -128 0
v -208 -112 0
v -224 -128 0
v -224 -112 0
v 0 -144 0
v -16 -144 0
v -32 -144 0
v -48 -144 0
v -64 -144 0
v -80 -144 0
v -96 -144 0
v -112 -144 0
v -128 -144 0
v -144 -144 0
v -160 -144 0
v -176 -144 0
v -192 -144 0
v -208 -144 0
v -224 -144 0
v 0 -160 0
v -16 -160 0
v -32 -160 0
v -48 -160 0
v -64 -160 0
v -80 -160 0
v -96 -160 0
v -112 -160 0
v -128 -160 0
v -144 -160 0
v -160 -160 0
v -176 -160 0
v -192 -160 0
v -208 -160 0
v -224 -160 0
v 0 -176 0
v -16 -176 0
v -32 -176 0
v -48 -176 0
v -64 -176 0
v -80 -176 0
v -96 -176 0
v -112 -176 0
v -128 -176 0
v -144 -176 0
v -160 -176 0
v -176 -176 0
v -192 -176 0
v -208 -176 0
v -224 -176 0
v 0 -192 0
v -16 -192 0
v -32 -192 0
v -48 -192 0
v -64 -192 0
v -80 -192 0
v -96 -192 0
v -112 -192 0
v 0 -208 0
v -16 -208 0
v -32 -208 0
v -48 -208 0
v -64 -208 0
v -80 -208 0
v -96 -208 0
v -112 -208 0
v 0 -224 0
v -16 -224 0
v -32 -224 0
v -48 -224 0
v -64 -224 0
v -80 -224 0
v -96 -224 0
v -112 -224 0
v 0 -240 0
v -16 -240 0
v -32 -240 0
v -48 -240 0
v -64 -240 0
v -80 -240 0
v -96 -240 0
v -112 -240 0
v 0 -48 0
v -16 -48 0
v -32 -48 0
v -48 -48 0
v -64 -48 0
v -80 -48 0
v -96 -48 0
v -112 -48 0
v -128 -48 0
v -144 -48 0
v -160 -48 0
v -176 -48 0
v -192 -48 0
v -208 -48 0
v -224 -48 0
v -240 -48 0
v -256 -48 0
v -272 -48 0
v -288 -48 0
v -304 -48 0
v -320 -48 0
v 0 -64 0
v -16 -64 0
v -32 -64 0
v -48 -64 0
v -64 -64 0
v -80 -64 0
v -96 -64 0
v -112 -64 0
v -128 -64 0
v -144 -64 0
v -160 -64 0
v -176 -64 0
v -192 -64 0
v -208 -64 0
v -224 -64 0
v -240 -64 0
v -256 -64 0
v -272 -64 0
v -288 -64 0
v -304 -64 0
v -320 -64 0
v 0 -80 0
v -16 -80 0
v -32 -80 0
v -48 -80 0
v -64 -80 0
v -80 -80 0
v -96 -80 0
v -112 -80 0
v -128 -80 0
v -144 -80 0
v -160 -80 0
v -176 -80 0
v -192 -80 0
v -208 -80 0
v -224 -80 0
v -240 -80 0
v -256 -80 0
v -272 -80 0
v -288 -80 0
v -304 -80 0
v -320 -80 0
v 0 -96 0
v -16 -96 0
v -32 -96 0
v -48 -96 0
v -64 -96 0
v -80 -96 0
v -96 -96 0
v -112 -96 0
v -128 -96 0
v -144 -96 0
v -160 -96 0
v -176 -96 0
v -192 -96 0
v -208 -96 0
v -224 -96 0
v -240 -96 0
v -256 -96 0
v -272 -96 0
v -288 -96 0
v -304 -96 0
v -320 -96 0
v -240 -112 0
v -256 -112 0
v -272 -112 0
v -288 -112 0
v -304 -112 0
v -320 -112 0
v -240 -128 0
v -256 -128 0
v -272 -128 0
v -288 -128 0
v -304 -128 0
v -320 -128 0
v -240 -144 0
v -256 -144 0
v -272 -144 0
v -288 -144 0
v -304 -144 0
v -320 -144 0
v -240 -160 0
v -256 -160 0
v -272 -160 0
v -288 -160 0
v -304 -160 0
v -320 -160 0
v -240 -176 0
v -256 -176 0
v -272 -176 0
v -288 -176 0
v -304 -176 0
v -320 -176 0
v -128 -192 0
v -144 -192 0
v -160 -192 0
v -176 -192 0
v -192 -192 0
v -208 -192 0
v -224 -192 0
v -240 -192 0
v -256 -192 0
v -272 -192 0
v -288 -192 0
v -304 -192 0
v -320 -192 0
v -128 -208 0
v -144 -208 0
v -160 -208 0
v -176 -208 0
v -256 -208 0
v -272 -208 0
v -288 -208 0
v -304 -208 0
v -320 -208 0
v -128 -224 0
v -144 -224 0
v -160 -224 0
v -256 -224 0
v -272 -224 0
v -288 -224 0
v -304 -224 0
v -320 -224 0
v -128 -240 0
v -144 -240 0
v -160 -240 0
v -256 -240 0
v -272 -240 0
v -288 -240 0
v -304 -240 0
v -320 -240 0
v -192 -208 0
v -208 -208 0
v -224 -208 0
v -240 -208 0
v -176 -224 0
v -192 -224 0
v -208 -224 0
v -240 -224 0
v -176 -240 0
v -240 -240 0
v -224 -224 0
v -192 -240 0
v -208 -240 0
v -224 -240 0

# Texture cooridinates (Count = 66)
vt 0.2501221 0.7501221
vt 0.4998779 0.7501221
vt 0.4998779 0.9998779
vt 0.2501221 0.9998779
vt 0.0001220703 0.7501221
vt 0.2498779 0.7501221
vt 0.2498779 0.9998779
vt 0.0001220703 0.9998779
vt 0.2501221 0.2501221
vt 0.4998779 0.2501221
vt 0.4998779 0.4998779
vt 0.2501221 0.4998779
vt 0.2501221 0.0001220703
vt 0.4998779 0.0001220703
vt 0.4998779 0.2498779
vt 0.2501221 0.2498779
vt 0.0001220703 0.2501221
vt 0.2498779 0.2501221
vt 0.2498779 0.4998779
vt 0.0001220703 0.4998779
vt 0.5001221 0.2501221
vt 0.7498779 0.2501221
vt 0.7498779 0.4998779
vt 0.5001221 0.4998779
vt 0.0001220703 0.0001220703
vt 0.2498779 0.0001220703
vt 0.2498779 0.2498779
vt 0.0001220703 0.2498779
vt 0.7501221 0.2501221
vt 0.9998779 0.2501221
vt 0.9998779 0.4998779
vt 0.7501221 0.4998779
vt 0.7501221 0.5001221
vt 0.9998779 0.5001221
vt 0.9998779 0.7498779
vt 0.7501221 0.7498779
vt 0.5001221 0.5001221
vt 0.7498779 0.5001221
vt 0.7498779 0.7498779
vt 0.5001221 0.7498779
vt 0.5001221 0.7501221
vt 0.7498779 0.7501221
vt 0.7498779 0.9998779
vt 0.5001221 0.9998779
vt 0.7501221 0.7501221
vt 0.9998779 0.7501221
vt 0.9998779 0.9998779
vt 0.7501221 0.9998779
vt 0.0001220703 0.5001221
vt 0.2498779 0.5001221
vt 0.2498779 0.7498779
vt 0.0001220703 0.7498779
vt 0.2501221 0.5001221
vt 0.4998779 0.5001221
vt 0.4998779 0.7498779
vt 0.2501221 0.7498779
vt 0.5001221 0.0001220703
vt 0.9998779 0.0001220703
vt 0.9998779 0.3332112
vt 0.0001220703 0.3332112
vt 0.0001220703 0.3334554
vt 0.9998779 0.3334554
vt 0.9998779 0.6665446
vt 0.0001220703 0.6665446
vt 0.0001220703 0.6667887
vt 0.9998779 0.6667887

# Normal
vn 0 0 -1

# Groups (Count = 3)

g mesh_0001
f 1/1/1 2/2/1 3/3/1 4/4/1
f 2/1/1 5/2/1 6/3/1 3/4/1
f 5/1/1 7/2/1 8/3/1 6/4/1
f 7/1/1 9/2/1 10/3/1 8/4/1
f 9/1/1 11/2/1 12/3/1 10/4/1
f 11/5/1 13/6/1 14/7/1 12/8/1
f 13/1/1 15/2/1 16/3/1 14/4/1
f 15/1/1 17/2/1 18/3/1 16/4/1
f 17/1/1 19/2/1 20/3/1 18/4/1
f 19/1/1 21/2/1 22/3/1 20/4/1
f 21/1/1 23/2/1 24/3/1 22/4/1
f 23/1/1 25/2/1 26/3/1 24/4/1
f 27/1/1 28/2/1 29/3/1 30/4/1
f 28/1/1 31/2/1 32/3/1 29/4/1
f 31/1/1 33/2/1 34/3/1 32/4/1
f 33/1/1 35/2/1 36/3/1 34/4/1
f 35/1/1 37/2/1 38/3/1 36/4/1
f 37/1/1 39/2/1 40/3/1 38/4/1
f 39/1/1 41/2/1 42/3/1 40/4/1
f 43/1/1 44/2/1 2/3/1 1/4/1
f 44/1/1 45/2/1 5/3/1 2/4/1
f 45/1/1 46/2/1 7/3/1 5/4/1
f 46/1/1 47/2/1 9/3/1 7/4/1
f 47/1/1 48/2/1 11/3/1 9/4/1
f 48/1/1 49/2/1 13/3/1 11/4/1
f 50/1/1 51/2/1 17/3/1 15/4/1
f 51/1/1 52/2/1 19/3/1 17/4/1
f 52/1/1 53/2/1 21/3/1 19/4/1
f 53/1/1 54/2/1 23/3/1 21/4/1
f 54/1/1 55/2/1 25/3/1 23/4/1
f 55/1/1 56/2/1 27/3/1 25/4/1
f 56/5/1 57/6/1 28/7/1 27/8/1
f 57/1/1 58/2/1 31/3/1 28/4/1
f 58/1/1 59/2/1 33/3/1 31/4/1
f 59/1/1 60/2/1 35/3/1 33/4/1
f 60/1/1 61/2/1 37/3/1 35/4/1
f 62/1/1 63/2/1 41/3/1 39/4/1
f 64/9/1 65/10/1 66/11/1 67/12/1
f 65/13/1 68/14/1 69/15/1 66/16/1
f 68/13/1 70/14/1 71/15/1 69/16/1
f 70/13/1 72/14/1 73/15/1 71/16/1
f 72/13/1 74/14/1 75/15/1 73/16/1
f 74/13/1 76/14/1 77/15/1 75/16/1
f 76/13/1 78/14/1 79/15/1 77/16/1
f 78/13/1 80/14/1 81/15/1 79/16/1
f 80/13/1 82/14/1 83/15/1 81/16/1
f 82/13/1 84/14/1 85/15/1 83/16/1
f 84/13/1 86/14/1 87/15/1 85/16/1
f 86/13/1 88/14/1 89/15/1 87/16/1
f 88/13/1 90/14/1 91/15/1 89/16/1
f 90/17/1 92/18/1 93/19/1 91/20/1
f 94/21/1 95/22/1 65/23/1 64/24/1
f 95/1/1 96/2/1 68/3/1 65/4/1
f 96/1/1 97/2/1 70/3/1 68/4/1
f 97/1/1 98/2/1 72/3/1 70/4/1
f 98/1/1 99/2/1 74/3/1 72/4/1
f 100/1/1 101/2/1 78/3/1 76/4/1
f 101/1/1 102/2/1 80/3/1 78/4/1
f 102/1/1 103/2/1 82/3/1 80/4/1
f 103/1/1 104/2/1 84/3/1 82/4/1
f 104/1/1 105/2/1 86/3/1 84/4/1
f 105/1/1 106/2/1 88/3/1 86/4/1
f 107/25/1 108/26/1 92/27/1 90/28/1
f 109/21/1 110/22/1 95/23/1 94/24/1
f 110/1/1 111/2/1 96/3/1 95/4/1
f 111/1/1 112/2/1 97/3/1 96/4/1
f 112/1/1 113/2/1 98/3/1 97/4/1
f 113/1/1 114/2/1 99/3/1 98/4/1
f 114/1/1 115/2/1 100/3/1 99/4/1
f 115/1/1 116/2/1 101/3/1 100/4/1
f 116/1/1 117/2/1 102/3/1 101/4/1
f 118/1/1 119/2/1 104/3/1 103/4/1
f 119/1/1 120/2/1 105/3/1 104/4/1
f 120/1/1 121/2/1 106/3/1 105/4/1
f 121/1/1 122/2/1 107/3/1 106/4/1
f 122/25/1 123/26/1 108/27/1 107/28/1
f 124/21/1 125/22/1 110/23/1 109/24/1
f 125/1/1 126/2/1 111/3/1 110/4/1
f 126/1/1 127/2/1 112/3/1 111/4/1
f 127/1/1 128/2/1 113/3/1 112/4/1
f 128/1/1 129/2/1 114/3/1 113/4/1
f 129/1/1 130/2/1 115/3/1 114/4/1
f 130/1/1 131/2/1 116/3/1 115/4/1
f 131/29/1 132/30/1 117/31/1 116/32/1
f 132/29/1 133/30/1 118/31/1 117/32/1
f 133/29/1 134/30/1 119/31/1 118/32/1
f 134/29/1 135/30/1 120/31/1 119/32/1
f 135/29/1 136/30/1 121/31/1 120/32/1
f 136/29/1 137/30/1 122/31/1 121/32/1
f 137/33/1 138/34/1 123/35/1 122/36/1
f 139/21/1 140/22/1 125/23/1 124/24/1
f 140/1/1 141/2/1 126/3/1 125/4/1
f 141/5/1 142/6/1 127/7/1 126/8/1
f 142/1/1 143/2/1 128/3/1 127/4/1
f 143/1/1 144/2/1 129/3/1 128/4/1
f 144/1/1 145/2/1 130/3/1 129/4/1
f 145/25/1 146/26/1 131/27/1 130/28/1
f 147/21/1 148/22/1 140/23/1 139/24/1
f 148/1/1 149/2/1 141/3/1 140/4/1
f 149/1/1 150/2/1 142/3/1 141/4/1
f 150/1/1 151/2/1 143/3/1 142/4/1
f 151/1/1 152/2/1 144/3/1 143/4/1
f 153/25/1 154/26/1 146/27/1 145/28/1
f 155/21/1 156/22/1 148/23/1 147/24/1
f 156/1/1 157/2/1 149/3/1 148/4/1
f 157/1/1 158/2/1 150/3/1 149/4/1
f 158/1/1 159/2/1 151/3/1 150/4/1
f 159/1/1 160/2/1 152/3/1 151/4/1
f 160/1/1 161/2/1 153/3/1 152/4/1
f 161/25/1 162/26/1 154/27/1 153/28/1
f 163/37/1 164/38/1 156/39/1 155/40/1
f 164/29/1 165/30/1 157/31/1 156/32/1
f 165/29/1 166/30/1 158/31/1 157/32/1
f 166/29/1 167/30/1 159/31/1 158/32/1
f 167/29/1 168/30/1 160/31/1 159/32/1
f 168/29/1 169/30/1 161/31/1 160/32/1
f 169/33/1 170/34/1 162/35/1 161/36/1

g mesh_0002
f 25/41/1 27/42/1 30/43/1 26/44/1
f 49/41/1 50/42/1 15/43/1 13/44/1
f 61/41/1 62/42/1 39/43/1 37/44/1
f 99/41/1 100/42/1 76/43/1 74/44/1
f 106/41/1 107/42/1 90/43/1 88/44/1
f 117/41/1 118/42/1 103/43/1 102/44/1
f 152/41/1 153/42/1 145/43/1 144/44/1

g mesh_0003
f 25/45/1 27/46/1 30/47/1 26/48/1
f 49/45/1 50/46/1 15/47/1 13/48/1
f 61/45/1 62/46/1 39/47/1 37/48/1
f 99/45/1 100/46/1 76/47/1 74/48/1
f 106/45/1 107/46/1 90/47/1 88/48/1
f 117/45/1 118/46/1 103/47/1 102/48/1
f 152/45/1 153/46/1 145/47/1 144/48/1

g mesh_0004
f 25/49/1 27/50/1 30/51/1 26/52/1
f 49/49/1 50/50/1 15/51/1 13/52/1
f 61/49/1 62/50/1 39/51/1 37/52/1
f 99/49/1 100/50/1 76/51/1 74/52/1
f 106/49/1 107/50/1 90/51/1 88/52/1
f 117/49/1 118/50/1 103/51/1 102/52/1
f 152/49/1 153/50/1 145/51/1 144/52/1

g mesh_0005
f 25/53/1 27/54/1 30/55/1 26/56/1
f 49/53/1 50/54/1 15/55/1 13/56/1
f 61/53/1 62/54/1 39/55/1 37/56/1
f 99/53/1 100/54/1 76/55/1 74/56/1
f 106/53/1 107/54/1 90/55/1 88/56/1
f 117/53/1 118/54/1 103/55/1 102/56/1
f 152/53/1 153/54/1 145/55/1 144/56/1

g mesh_0006
f 171/5/1 172/6/1 44/7/1 43/8/1
f 172/5/1 173/6/1 45/7/1 44/8/1
f 173/5/1 174/6/1 46/7/1 45/8/1
f 174/5/1 175/6/1 47/7/1 46/8/1
f 175/5/1 176/6/1 48/7/1 47/8/1
f 176/41/1 177/42/1 49/43/1 48/44/1
f 177/5/1 178/6/1 50/7/1 49/8/1
f 178/5/1 179/6/1 51/7/1 50/8/1
f 179/5/1 180/6/1 52/7/1 51/8/1
f 180/5/1 181/6/1 53/7/1 52/8/1
f 181/5/1 182/6/1 54/7/1 53/8/1
f 182/5/1 183/6/1 55/7/1 54/8/1
f 183/5/1 184/6/1 56/7/1 55/8/1
f 184/5/1 185/6/1 57/7/1 56/8/1
f 185/5/1 186/6/1 58/7/1 57/8/1
f 186/5/1 187/6/1 59/7/1 58/8/1
f 187/5/1 188/6/1 60/7/1 59/8/1
f 188/5/1 189/6/1 61/7/1 60/8/1
f 189/5/1 190/6/1 62/7/1 61/8/1
f 190/5/1 191/6/1 63/7/1 62/8/1
f 192/5/1 193/6/1 172/7/1 171/8/1
f 193/5/1 194/6/1 173/7/1 172/8/1
f 194/5/1 195/6/1 174/7/1 173/8/1
f 195/5/1 196/6/1 175/7/1 174/8/1
f 196/5/1 197/6/1 176/7/1 175/8/1
f 197/5/1 198/6/1 177/7/1 176/8/1
f 198/5/1 199/6/1 178/7/1 177/8/1
f 199/5/1 200/6/1 179/7/1 178/8/1
f 200/5/1 201/6/1 180/7/1 179/8/1
f 201/5/1 202/6/1 181/7/1 180/8/1
f 202/5/1 203/6/1 182/7/1 181/8/1
f 203/5/1 204/6/1 183/7/1 182/8/1
f 204/5/1 205/6/1 184/7/1 183/8/1
f 205/5/1 206/6/1 185/7/1 184/8/1
f 206/5/1 207/6/1 186/7/1 185/8/1
f 207/5/1 208/6/1 187/7/1 186/8/1
f 208/5/1 209/6/1 188/7/1 187/8/1
f 209/5/1 210/6/1 189/7/1 188/8/1
f 210/5/1 211/6/1 190/7/1 189/8/1
f 211/5/1 212/6/1 191/7/1 190/8/1
f 213/5/1 214/6/1 193/7/1 192/8/1
f 214/5/1 215/6/1 194/7/1 193/8/1
f 215/5/1 216/6/1 195/7/1 194/8/1
f 216/5/1 217/6/1 196/7/1 195/8/1
f 217/5/1 218/6/1 197/7/1 196/8/1
f 218/5/1 219/6/1 198/7/1 197/8/1
f 219/5/1 220/6/1 199/7/1 198/8/1
f 220/5/1 221/6/1 200/7/1 199/8/1
f 221/5/1 222/6/1 201/7/1 200/8/1
f 222/5/1 223/6/1 202/7/1 201/8/1
f 223/5/1 224/6/1 203/7/1 202/8/1
f 224/5/1 225/6/1 204/7/1 203/8/1
f 225/5/1 226/6/1 205/7/1 204/8/1
f 226/5/1 227/6/1 206/7/1 205/8/1
f 227/5/1 228/6/1 207/7/1 206/8/1
f 228/5/1 229/6/1 208/7/1 207/8/1
f 229/17/1 230/18/1 209/19/1 208/20/1
f 230/17/1 231/18/1 210/19/1 209/20/1
f 231/5/1 232/6/1 211/7/1 210/8/1
f 232/5/1 233/6/1 212/7/1 211/8/1
f 234/5/1 235/6/1 214/7/1 213/8/1
f 235/5/1 236/6/1 215/7/1 214/8/1
f 236/5/1 237/6/1 216/7/1 215/8/1
f 237/5/1 238/6/1 217/7/1 216/8/1
f 238/5/1 239/6/1 218/7/1 217/8/1
f 239/5/1 240/6/1 219/7/1 218/8/1
f 240/5/1 241/6/1 220/7/1 219/8/1
f 241/5/1 242/6/1 221/7/1 220/8/1
f 242/5/1 243/6/1 222/7/1 221/8/1
f 243/5/1 244/6/1 223/7/1 222/8/1
f 244/5/1 245/6/1 224/7/1 223/8/1
f 245/5/1 246/6/1 225/7/1 224/8/1
f 246/5/1 247/6/1 226/7/1 225/8/1
f 247/5/1 248/6/1 227/7/1 226/8/1
f 248/5/1 249/6/1 228/7/1 227/8/1
f 249/5/1 250/6/1 229/7/1 228/8/1
f 250/5/1 251/6/1 230/7/1 229/8/1
f 251/5/1 252/6/1 231/7/1 230/8/1
f 252/5/1 253/6/1 232/7/1 231/8/1
f 253/5/1 254/6/1 233/7/1 232/8/1
f 67/5/1 66/6/1 235/7/1 234/8/1
f 66/5/1 69/6/1 236/7/1 235/8/1
f 69/5/1 71/6/1 237/7/1 236/8/1
f 71/5/1 73/6/1 238/7/1 237/8/1
f 73/5/1 75/6/1 239/7/1 238/8/1
f 75/1/1 77/2/1 240/3/1 239/4/1
f 77/1/1 79/2/1 241/3/1 240/4/1
f 79/5/1 81/6/1 242/7/1 241/8/1
f 81/5/1 83/6/1 243/7/1 242/8/1
f 83/5/1 85/6/1 244/7/1 243/8/1
f 85/5/1 87/6/1 245/7/1 244/8/1
f 87/5/1 89/6/1 246/7/1 245/8/1
f 89/5/1 91/6/1 247/7/1 246/8/1
f 91/5/1 93/6/1 248/7/1 247/8/1
f 93/5/1 255/6/1 249/7/1 248/8/1
f 255/5/1 256/6/1 250/7/1 249/8/1
f 256/5/1 257/6/1 251/7/1 250/8/1
f 257/5/1 258/6/1 252/7/1 251/8/1
f 258/5/1 259/6/1 253/7/1 252/8/1
f 259/5/1 260/6/1 254/7/1 253/8/1
f 92/5/1 261/6/1 255/7/1 93/8/1
f 261/5/1 262/6/1 256/7/1 255/8/1
f 262/5/1 263/6/1 257/7/1 256/8/1
f 263/1/1 264/2/1 258/3/1 257/4/1
f 264/1/1 265/2/1 259/3/1 258/4/1
f 265/5/1 266/6/1 260/7/1 259/8/1
f 108/5/1 267/6/1 261/7/1 92/8/1
f 267/5/1 268/6/1 262/7/1 261/8/1
f 268/5/1 269/6/1 263/7/1 262/8/1
f 269/5/1 270/6/1 264/7/1 263/8/1
f 270/5/1 271/6/1 265/7/1 264/8/1
f 271/5/1 272/6/1 266/7/1 265/8/1
f 123/5/1 273/6/1 267/7/1 108/8/1
f 273/5/1 274/6/1 268/7/1 267/8/1
f 274/5/1 275/6/1 269/7/1 268/8/1
f 275/5/1 276/6/1 270/7/1 269/8/1
f 276/5/1 277/6/1 271/7/1 270/8/1
f 277/5/1 278/6/1 272/7/1 271/8/1
f 138/5/1 279/6/1 273/7/1 123/8/1
f 279/5/1 280/6/1 274/7/1 273/8/1
f 280/5/1 281/6/1 275/7/1 274/8/1
f 281/5/1 282/6/1 276/7/1 275/8/1
f 282/5/1 283/6/1 277/7/1 276/8/1
f 283/5/1 284/6/1 278/7/1 277/8/1
f 146/5/1 285/6/1 132/7/1 131/8/1
f 285/5/1 286/6/1 133/7/1 132/8/1
f 286/1/1 287/2/1 134/3/1 133/4/1
f 287/5/1 288/6/1 135/7/1 134/8/1
f 288/5/1 289/6/1 136/7/1 135/8/1
f 289/5/1 290/6/1 137/7/1 136/8/1
f 290/5/1 291/6/1 138/7/1 137/8/1
f 291/5/1 292/6/1 279/7/1 138/8/1
f 292/5/1 293/6/1 280/7/1 279/8/1
f 293/5/1 294/6/1 281/7/1 280/8/1
f 294/5/1 295/6/1 282/7/1 281/8/1
f 295/5/1 296/6/1 283/7/1 282/8/1
f 296/5/1 297/6/1 284/7/1 283/8/1
f 154/5/1 298/6/1 285/7/1 146/8/1
f 298/5/1 299/6/1 286/7/1 285/8/1
f 299/5/1 300/6/1 287/7/1 286/8/1
f 300/5/1 301/6/1 288/7/1 287/8/1
f 302/5/1 303/6/1 294/7/1 293/8/1
f 303/5/1 304/6/1 295/7/1 294/8/1
f 304/5/1 305/6/1 296/7/1 295/8/1
f 305/5/1 306/6/1 297/7/1 296/8/1
f 162/5/1 307/6/1 298/7/1 154/8/1
f 307/5/1 308/6/1 299/7/1 298/8/1
f 308/5/1 309/6/1 300/7/1 299/8/1
f 310/5/1 311/6/1 303/7/1 302/8/1
f 311/5/1 312/6/1 304/7/1 303/8/1
f 312/5/1 313/6/1 305/7/1 304/8/1
f 313/5/1 314/6/1 306/7/1 305/8/1
f 170/5/1 315/6/1 307/7/1 162/8/1
f 315/5/1 316/6/1 308/7/1 307/8/1
f 316/5/1 317/6/1 309/7/1 308/8/1
f 318/5/1 319/6/1 311/7/1 310/8/1
f 319/5/1 320/6/1 312/7/1 311/8/1
f 320/1/1 321/2/1 313/3/1 312/4/1
f 321/5/1 322/6/1 314/7/1 313/8/1

g mesh_0007
f 301/37/1 323/34/1 289/47/1 288/44/1
f 323/37/1 324/34/1 290/47/1 289/44/1
f 324/37/1 325/34/1 291/47/1 290/44/1
f 325/37/1 326/34/1 292/47/1 291/44/1
f 326/37/1 302/34/1 293/47/1 292/44/1
f 309/37/1 327/34/1 301/47/1 300/44/1
f 327/37/1 328/34/1 323/47/1 301/44/1
f 328/37/1 329/34/1 324/47/1 323/44/1
f 330/37/1 310/34/1 302/47/1 326/44/1
f 317/37/1 331/34/1 327/47/1 309/44/1
f 332/37/1 318/34/1 310/47/1 330/44/1

g mesh_0008
f 301/49/1 323/54/1 289/3/1 288/8/1
f 323/49/1 324/54/1 290/3/1 289/8/1
f 324/49/1 325/54/1 291/3/1 290/8/1
f 325/49/1 326/54/1 292/3/1 291/8/1
f 326/49/1 302/54/1 293/3/1 292/8/1
f 309/49/1 327/54/1 301/3/1 300/8/1
f 327/49/1 328/54/1 323/3/1 301/8/1
f 328/49/1 329/54/1 324/3/1 323/8/1
f 330/49/1 310/54/1 302/3/1 326/8/1
f 317/49/1 331/54/1 327/3/1 309/8/1
f 332/49/1 318/54/1 310/3/1 330/8/1

g mesh_0009
f 301/25/1 323/14/1 289/11/1 288/20/1
f 323/25/1 324/14/1 290/11/1 289/20/1
f 324/25/1 325/14/1 291/11/1 290/20/1
f 325/25/1 326/14/1 292/11/1 291/20/1
f 326/25/1 302/14/1 293/11/1 292/20/1
f 309/25/1 327/14/1 301/11/1 300/20/1
f 327/25/1 328/14/1 323/11/1 301/20/1
f 328/25/1 329/14/1 324/11/1 323/20/1
f 330/25/1 310/14/1 302/11/1 326/20/1
f 317/25/1 331/14/1 327/11/1 309/20/1
f 332/25/1 318/14/1 310/11/1 330/20/1

g mesh_0010
f 301/57/1 323/58/1 289/31/1 288/24/1
f 323/57/1 324/58/1 290/31/1 289/24/1
f 324/57/1 325/58/1 291/31/1 290/24/1
f 325/57/1 326/58/1 292/31/1 291/24/1
f 326/57/1 302/58/1 293/31/1 292/24/1
f 309/57/1 327/58/1 301/31/1 300/24/1
f 327/57/1 328/58/1 323/31/1 301/24/1
f 328/57/1 329/58/1 324/31/1 323/24/1
f 330/57/1 310/58/1 302/31/1 326/24/1
f 317/57/1 331/58/1 327/31/1 309/24/1
f 332/57/1 318/58/1 310/31/1 330/24/1

g mesh_0011
f 301/25/1 323/14/1 289/11/1 288/20/1
f 323/25/1 324/14/1 290/11/1 289/20/1
f 324/25/1 325/14/1 291/11/1 290/20/1
f 325/25/1 326/14/1 292/11/1 291/20/1
f 326/25/1 302/14/1 293/11/1 292/20/1
f 309/25/1 327/14/1 301/11/1 300/20/1
f 327/25/1 328/14/1 323/11/1 301/20/1
f 328/25/1 329/14/1 324/11/1 323/20/1
f 330/25/1 310/14/1 302/11/1 326/20/1
f 317/25/1 331/14/1 327/11/1 309/20/1
f 332/25/1 318/14/1 310/11/1 330/20/1

g mesh_0012
f 301/49/1 323/54/1 289/3/1 288/8/1
f 323/49/1 324/54/1 290/3/1 289/8/1
f 324/49/1 325/54/1 291/3/1 290/8/1
f 325/49/1 326/54/1 292/3/1 291/8/1
f 326/49/1 302/54/1 293/3/1 292/8/1
f 309/49/1 327/54/1 301/3/1 300/8/1
f 327/49/1 328/54/1 323/3/1 301/8/1
f 328/49/1 329/54/1 324/3/1 323/8/1
f 330/49/1 310/54/1 302/3/1 326/8/1
f 317/49/1 331/54/1 327/3/1 309/8/1
f 332/49/1 318/54/1 310/3/1 330/8/1

g mesh_0013
f 329/37/1 333/34/1 325/47/1 324/44/1
f 333/37/1 330/34/1 326/47/1 325/44/1
f 331/37/1 334/34/1 328/47/1 327/44/1
f 334/37/1 335/34/1 329/47/1 328/44/1
f 335/37/1 336/34/1 333/47/1 329/44/1
f 336/37/1 332/34/1 330/47/1 333/44/1

g mesh_0014
f 329/49/1 333/54/1 325/3/1 324/8/1
f 333/49/1 330/54/1 326/3/1 325/8/1
f 331/49/1 334/54/1 328/3/1 327/8/1
f 334/49/1 335/54/1 329/3/1 328/8/1
f 335/49/1 336/54/1 333/3/1 329/8/1
f 336/49/1 332/54/1 330/3/1 333/8/1

g mesh_0015
f 329/25/1 333/14/1 325/11/1 324/20/1
f 333/25/1 330/14/1 326/11/1 325/20/1
f 331/25/1 334/14/1 328/11/1 327/20/1
f 334/25/1 335/14/1 329/11/1 328/20/1
f 335/25/1 336/14/1 333/11/1 329/20/1
f 336/25/1 332/14/1 330/11/1 333/20/1

g mesh_0016
f 329/57/1 333/58/1 325/31/1 324/24/1
f 333/57/1 330/58/1 326/31/1 325/24/1
f 331/57/1 334/58/1 328/31/1 327/24/1
f 334/57/1 335/58/1 329/31/1 328/24/1
f 335/57/1 336/58/1 333/31/1 329/24/1
f 336/57/1 332/58/1 330/31/1 333/24/1

g mesh_0017
f 329/25/1 333/14/1 325/11/1 324/20/1
f 333/25/1 330/14/1 326/11/1 325/20/1
f 331/25/1 334/14/1 328/11/1 327/20/1
f 334/25/1 335/14/1 329/11/1 328/20/1
f 335/25/1 336/14/1 333/11/1 329/20/1
f 336/25/1 332/14/1 330/11/1 333/20/1

g mesh_0018
f 329/49/1 333/54/1 325/3/1 324/8/1
f 333/49/1 330/54/1 326/3/1 325/8/1
f 331/49/1 334/54/1 328/3/1 327/8/1
f 334/49/1 335/54/1 329/3/1 328/8/1
f 335/49/1 336/54/1 333/3/1 329/8/1
f 336/49/1 332/54/1 330/3/1 333/8/1

g mesh_0019
f 171/57/1 172/58/1 44/31/1 43/24/1
f 172/57/1 173/58/1 45/31/1 44/24/1
f 173/57/1 174/58/1 46/31/1 45/24/1
f 174/57/1 175/58/1 47/31/1 46/24/1
f 175/57/1 176/58/1 48/31/1 47/24/1
f 176/57/1 177/58/1 49/31/1 48/24/1
f 177/57/1 178/58/1 50/31/1 49/24/1
f 178/57/1 179/58/1 51/31/1 50/24/1
f 179/57/1 180/58/1 52/31/1 51/24/1
f 180/57/1 181/58/1 53/31/1 52/24/1
f 181/57/1 182/58/1 54/31/1 53/24/1
f 182/57/1 183/58/1 55/31/1 54/24/1
f 183/57/1 184/58/1 56/31/1 55/24/1
f 184/57/1 185/58/1 57/31/1 56/24/1
f 185/57/1 186/58/1 58/31/1 57/24/1
f 186/57/1 187/58/1 59/31/1 58/24/1
f 187/57/1 188/58/1 60/31/1 59/24/1
f 188/57/1 189/58/1 61/31/1 60/24/1
f 189/57/1 190/58/1 62/31/1 61/24/1
f 190/57/1 191/58/1 63/31/1 62/24/1
f 192/25/1 193/14/1 172/11/1 171/20/1
f 193/25/1 194/14/1 173/11/1 172/20/1
f 194/25/1 195/14/1 174/11/1 173/20/1
f 195/25/1 196/14/1 175/11/1 174/20/1
f 196/25/1 197/14/1 176/11/1 175/20/1
f 197/25/1 198/14/1 177/11/1 176/20/1
f 198/25/1 199/14/1 178/11/1 177/20/1
f 199/25/1 200/14/1 179/11/1 178/20/1
f 200/25/1 201/14/1 180/11/1 179/20/1
f 201/25/1 202/14/1 181/11/1 180/20/1
f 202/25/1 203/14/1 182/11/1 181/20/1
f 203/25/1 204/14/1 183/11/1 182/20/1
f 204/25/1 205/14/1 184/11/1 183/20/1
f 205/25/1 206/14/1 185/11/1 184/20/1
f 206/25/1 207/14/1 186/11/1 185/20/1
f 207/25/1 208/14/1 187/11/1 186/20/1
f 208/25/1 209/14/1 188/11/1 187/20/1
f 209/25/1 210/14/1 189/11/1 188/20/1
f 210/25/1 211/14/1 190/11/1 189/20/1
f 211/25/1 212/14/1 191/11/1 190/20/1
f 213/37/1 214/34/1 193/47/1 192/44/1
f 214/37/1 215/34/1 194/47/1 193/44/1
f 215/37/1 216/34/1 195/47/1 194/44/1
f 216/37/1 217/34/1 196/47/1 195/44/1
f 217/37/1 218/34/1 197/47/1 196/44/1
f 218/37/1 219/34/1 198/47/1 197/44/1
f 219/37/1 220/34/1 199/47/1 198/44/1
f 220/37/1 221/34/1 200/47/1 199/44/1
f 221/37/1 222/34/1 201/47/1 200/44/1
f 222/37/1 223/34/1 202/47/1 201/44/1
f 223/37/1 224/34/1 203/47/1 202/44/1
f 224/49/1 225/54/1 204/3/1 203/8/1
f 225/37/1 226/34/1 205/47/1 204/44/1
f 226/37/1 227/34/1 206/47/1 205/44/1
f 227/37/1 228/34/1 207/47/1 206/44/1
f 228/37/1 229/34/1 208/47/1 207/44/1
f 229/37/1 230/34/1 209/47/1 208/44/1
f 230/37/1 231/34/1 210/47/1 209/44/1
f 231/37/1 232/34/1 211/47/1 210/44/1
f 232/37/1 233/34/1 212/47/1 211/44/1

g mesh_0020
f 186/25/1 187/58/1 59/59/1 58/60/1
f 207/61/1 208/62/1 187/63/1 186/64/1
f 228/65/1 229/66/1 208/47/1 207/8/1

